<?xml version="1.0" standalone="no"?>
<!DOCTYPE svg PUBLIC "-//W3C//DTD SVG 1.1//EN"
"http://www.w3.org/Graphics/SVG/1.1/DTD/svg11.dtd">
<!-- Creator: fig2dev Version 3.2 Patchlevel 5 -->
<!-- CreationDate: Wed Jan  9 01:26:26 2008 -->
<!-- Magnification: 1.050 -->
<svg xmlns="http://www.w3.org/2000/svg" width="4.4in" height="1.4in" viewBox="1735 2818 5316 1685">
<g style="stroke-width:.025in; stroke:black; fill:none">
<!-- Line -->
<polyline points="2645,4251
3968,3118
5858,3118
5385,4251
" style="stroke:#000000;stroke-width:8;
stroke-linejoin:miter; stroke-linecap:butt;
"/>
<!-- Line -->
<polyline points="4393,2929
3985,2929
" style="stroke:#000000;stroke-width:8;
stroke-linejoin:miter; stroke-linecap:butt;
"/>
<!-- Arrowhead on XXXpoint 4393 2929 - 3952 2929-->
<polyline points="4025 2897
3962 2929
4025 2960
" style="stroke:#000000;stroke-width:8;
"/>
<!-- Line -->
<polyline points="5480,2929
5840,2929
" style="stroke:#000000;stroke-width:8;
stroke-linejoin:miter; stroke-linecap:butt;
"/>
<!-- Arrowhead on XXXpoint 5480 2929 - 5874 2929-->
<polyline points="5801 2960
5864 2929
5801 2897
" style="stroke:#000000;stroke-width:8;
"/>
<!-- Line -->
<polyline points="5999,3135
5999,4234
" style="stroke:#000000;stroke-width:8;
stroke-linejoin:miter; stroke-linecap:butt;
"/>
<!-- Arrowhead on XXXpoint 5999 3118 - 5999 4267-->
<polyline points="5968 4195
5999 4258
6031 4195
" style="stroke:#000000;stroke-width:8;
"/>
<!-- Arrowhead on XXXpoint 5999 4251 - 5999 3102-->
<polyline points="6031 3174
5999 3111
5968 3174
" style="stroke:#000000;stroke-width:8;
"/>
<!-- Line -->
<polyline points="2645,3023
2645,4062
" style="stroke:#000000;stroke-width:8;
stroke-linejoin:miter; stroke-linecap:butt;
stroke-dasharray:41 41;"/>
<!-- Line -->
<polyline points="3637,2929
3950,2929
" style="stroke:#000000;stroke-width:8;
stroke-linejoin:miter; stroke-linecap:butt;
"/>
<!-- Arrowhead on XXXpoint 3637 2929 - 3984 2929-->
<polyline points="3911 2960
3974 2929
3911 2897
" style="stroke:#000000;stroke-width:8;
"/>
<!-- Line -->
<polyline points="2881,2929
2662,2929
" style="stroke:#000000;stroke-width:8;
stroke-linejoin:miter; stroke-linecap:butt;
"/>
<!-- Arrowhead on XXXpoint 2881 2929 - 2629 2929-->
<polyline points="2702 2897
2639 2929
2702 2960
" style="stroke:#000000;stroke-width:8;
"/>
<!-- Line -->
<polyline points="1748,4251
7039,4251
" style="stroke:#000000;stroke-width:8;
stroke-linejoin:miter; stroke-linecap:butt;
"/>
<!-- Line -->
<polyline points="3354,4440
2662,4440
" style="stroke:#000000;stroke-width:8;
stroke-linejoin:miter; stroke-linecap:butt;
"/>
<!-- Arrowhead on XXXpoint 3354 4440 - 2629 4440-->
<polyline points="2702 4409
2639 4440
2702 4472
" style="stroke:#000000;stroke-width:8;
"/>
<!-- Line -->
<polyline points="4724,4440
5367,4440
" style="stroke:#000000;stroke-width:8;
stroke-linejoin:miter; stroke-linecap:butt;
"/>
<!-- Arrowhead on XXXpoint 4724 4440 - 5401 4440-->
<polyline points="5329 4472
5392 4440
5329 4409
" style="stroke:#000000;stroke-width:8;
"/>
<!-- Line -->
<polyline points="3968,2881
3968,2976
" style="stroke:#000000;stroke-width:8;
stroke-linejoin:miter; stroke-linecap:butt;
"/>
<!-- Line -->
<polyline points="2125,4251
1889,4488
" style="stroke:#000000;stroke-width:8;
stroke-linejoin:miter; stroke-linecap:butt;
"/>
<!-- Line -->
<polyline points="2362,4251
2125,4488
" style="stroke:#000000;stroke-width:8;
stroke-linejoin:miter; stroke-linecap:butt;
"/>
<!-- Line -->
<polyline points="2598,4251
2362,4488
" style="stroke:#000000;stroke-width:8;
stroke-linejoin:miter; stroke-linecap:butt;
"/>
<!-- Line -->
<polyline points="2645,2881
2645,2976
" style="stroke:#000000;stroke-width:8;
stroke-linejoin:miter; stroke-linecap:butt;
"/>
<!-- Line -->
<polyline points="5858,2881
5858,2976
" style="stroke:#000000;stroke-width:8;
stroke-linejoin:miter; stroke-linecap:butt;
"/>
<!-- Line -->
<polyline points="5385,4393
5385,4488
" style="stroke:#000000;stroke-width:8;
stroke-linejoin:miter; stroke-linecap:butt;
"/>
<!-- Line -->
<polyline points="2645,4393
2645,4488
" style="stroke:#000000;stroke-width:8;
stroke-linejoin:miter; stroke-linecap:butt;
"/>
<!-- Line -->
<polyline points="5952,3118
6047,3118
" style="stroke:#000000;stroke-width:8;
stroke-linejoin:miter; stroke-linecap:butt;
"/>
<!-- Line -->
<polyline points="5952,4251
5716,4488
" style="stroke:#000000;stroke-width:8;
stroke-linejoin:miter; stroke-linecap:butt;
"/>
<!-- Line -->
<polyline points="5716,4251
5480,4488
" style="stroke:#000000;stroke-width:8;
stroke-linejoin:miter; stroke-linecap:butt;
"/>
<!-- Line -->
<polyline points="6188,4251
5952,4488
" style="stroke:#000000;stroke-width:8;
stroke-linejoin:miter; stroke-linecap:butt;
"/>
<!-- Line -->
<polyline points="6425,4251
6188,4488
" style="stroke:#000000;stroke-width:8;
stroke-linejoin:miter; stroke-linecap:butt;
"/>
<!-- Line -->
<polyline points="6661,4251
6425,4488
" style="stroke:#000000;stroke-width:8;
stroke-linejoin:miter; stroke-linecap:butt;
"/>
<!-- Line -->
<polyline points="6897,4251
6661,4488
" style="stroke:#000000;stroke-width:8;
stroke-linejoin:miter; stroke-linecap:butt;
"/>
<!-- Text -->
<text xml:space="preserve" x="4393" y="2976" stroke="#000000" fill="#000000"  font-family="Times" font-style="normal" font-weight="normal" font-size="139" text-anchor="start">TIP CHORD</text>
<!-- Text -->
<text xml:space="preserve" x="2929" y="2976" stroke="#000000" fill="#000000"  font-family="Times" font-style="normal" font-weight="normal" font-size="139" text-anchor="start">SWEEP</text>
<!-- Text -->
<text xml:space="preserve" x="3551" y="4488" stroke="#000000" fill="#000000"  font-family="Times" font-style="normal" font-weight="normal" font-size="139" text-anchor="start">ROOT CHORD</text>
<!-- Text -->
<text xml:space="preserve" x="6094" y="3732" stroke="#000000" fill="#000000"  font-family="Times" font-style="normal" font-weight="normal" font-size="139" text-anchor="start">HEIGHT</text>
</g>
</svg>
